<svg width="236" height="38" viewBox="0 0 236 38" fill="none" xmlns="http://www.w3.org/2000/svg">
<path d="M0.101562 37V2.73438H9.35938V29.5234H22.5547V37H0.101562ZM39.4531 9.97656C42.0312 9.97656 44.2578 10.4297 46.1328 11.3359C48.0078 12.2266 49.4531 13.5703 50.4688 15.3672C51.4844 17.1641 51.9922 19.4141 51.9922 22.1172V26.1953H35.6094C35.6875 27.5859 36.2031 28.7266 37.1562 29.6172C38.125 30.5078 39.5469 30.9531 41.4219 30.9531C43.0781 30.9531 44.5938 30.7891 45.9688 30.4609C47.3594 30.1328 48.7891 29.625 50.2578 28.9375V35.5234C48.9766 36.1953 47.5781 36.6875 46.0625 37C44.5469 37.3125 42.6328 37.4688 40.3203 37.4688C37.6484 37.4688 35.2578 36.9922 33.1484 36.0391C31.0391 35.0859 29.375 33.6094 28.1562 31.6094C26.9531 29.6094 26.3516 27.0391 26.3516 23.8984C26.3516 20.7109 26.8984 18.0938 27.9922 16.0469C29.0859 13.9844 30.6172 12.4609 32.5859 11.4766C34.5547 10.4766 36.8438 9.97656 39.4531 9.97656ZM39.7812 16.2109C38.7031 16.2109 37.7969 16.5547 37.0625 17.2422C36.3438 17.9141 35.9219 18.9766 35.7969 20.4297H43.6719C43.6562 19.6484 43.5 18.9375 43.2031 18.2969C42.9062 17.6562 42.4688 17.1484 41.8906 16.7734C41.3281 16.3984 40.625 16.2109 39.7812 16.2109ZM70.1797 30.2266C71.0078 30.2266 71.7656 30.1406 72.4531 29.9688C73.1406 29.7969 73.8594 29.5781 74.6094 29.3125V35.9922C73.6094 36.4297 72.5469 36.7812 71.4219 37.0469C70.3125 37.3281 68.8906 37.4688 67.1562 37.4688C65.4375 37.4688 63.9219 37.2031 62.6094 36.6719C61.2969 36.125 60.2734 35.1875 59.5391 33.8594C58.8203 32.5156 58.4609 30.6484 58.4609 28.2578V17.3125H55.25V13.5859L59.3281 10.7031L61.6953 5.125H67.6953V10.4453H74.2109V17.3125H67.6953V27.6484C67.6953 28.5078 67.9141 29.1562 68.3516 29.5938C68.7891 30.0156 69.3984 30.2266 70.1797 30.2266ZM98.9844 28.8438C98.9844 30.5312 98.6094 32.0234 97.8594 33.3203C97.1094 34.6172 95.9062 35.6328 94.25 36.3672C92.6094 37.1016 90.4453 37.4688 87.7578 37.4688C85.8672 37.4688 84.1719 37.3672 82.6719 37.1641C81.1875 36.9609 79.6797 36.5703 78.1484 35.9922V28.6562C79.8203 29.4219 81.5234 29.9766 83.2578 30.3203C84.9922 30.6484 86.3594 30.8125 87.3594 30.8125C88.3906 30.8125 89.1406 30.7031 89.6094 30.4844C90.0938 30.25 90.3359 29.9062 90.3359 29.4531C90.3359 29.0625 90.1719 28.7344 89.8438 28.4688C89.5312 28.1875 88.9609 27.8672 88.1328 27.5078C87.3203 27.1484 86.1719 26.6641 84.6875 26.0547C83.2188 25.4453 81.9922 24.7812 81.0078 24.0625C80.0391 23.3438 79.3125 22.4844 78.8281 21.4844C78.3438 20.4844 78.1016 19.2578 78.1016 17.8047C78.1016 15.2109 79.1016 13.2578 81.1016 11.9453C83.1016 10.6328 85.75 9.97656 89.0469 9.97656C90.7969 9.97656 92.4453 10.1719 93.9922 10.5625C95.5391 10.9375 97.1406 11.4922 98.7969 12.2266L96.2891 18.1328C94.9766 17.5391 93.6484 17.0625 92.3047 16.7031C90.9609 16.3438 89.8906 16.1641 89.0938 16.1641C88.375 16.1641 87.8203 16.2578 87.4297 16.4453C87.0391 16.6328 86.8438 16.9062 86.8438 17.2656C86.8438 17.5938 86.9766 17.8828 87.2422 18.1328C87.5234 18.3828 88.0469 18.6719 88.8125 19C89.5781 19.3281 90.6953 19.7891 92.1641 20.3828C93.7109 21.0078 94.9844 21.6797 95.9844 22.3984C97 23.1016 97.75 23.9609 98.2344 24.9766C98.7344 25.9922 98.9844 27.2812 98.9844 28.8438Z" fill="white"/>
<path d="M150.078 2.73438L141.641 37H130.695L127.414 22.0703C127.352 21.7891 127.25 21.3125 127.109 20.6406C126.984 19.9688 126.836 19.2031 126.664 18.3438C126.508 17.4844 126.359 16.6406 126.219 15.8125C126.094 14.9688 126 14.2578 125.938 13.6797C125.875 14.2578 125.773 14.9688 125.633 15.8125C125.492 16.6406 125.336 17.4844 125.164 18.3438C125.008 19.2031 124.852 19.9688 124.695 20.6406C124.555 21.3125 124.453 21.7891 124.391 22.0703L121.086 37H110.141L101.656 2.73438H110.586L114.312 19.9141C114.406 20.3359 114.531 20.9375 114.688 21.7188C114.859 22.4844 115.031 23.3281 115.203 24.25C115.391 25.1562 115.562 26.0312 115.719 26.875C115.875 27.7188 115.984 28.4219 116.047 28.9844C116.172 28.0156 116.336 26.9141 116.539 25.6797C116.758 24.4453 116.992 23.1953 117.242 21.9297C117.508 20.6484 117.758 19.4609 117.992 18.3672C118.227 17.2734 118.43 16.3828 118.602 15.6953L121.625 2.73438H130.203L133.133 15.6953C133.289 16.3672 133.484 17.2578 133.719 18.3672C133.969 19.4609 134.219 20.6484 134.469 21.9297C134.734 23.2109 134.977 24.4766 135.195 25.7266C135.414 26.9609 135.578 28.0469 135.688 28.9844C135.781 28.2031 135.938 27.2188 136.156 26.0312C136.375 24.8281 136.594 23.6641 136.812 22.5391C137.047 21.3984 137.227 20.5391 137.352 19.9609L141.148 2.73438H150.078ZM179.328 23.6641C179.328 25.8828 179.023 27.8516 178.414 29.5703C177.805 31.2891 176.922 32.7344 175.766 33.9062C174.609 35.0781 173.211 35.9688 171.57 36.5781C169.93 37.1719 168.078 37.4688 166.016 37.4688C164.094 37.4688 162.328 37.1719 160.719 36.5781C159.125 35.9688 157.734 35.0781 156.547 33.9062C155.359 32.7344 154.438 31.2891 153.781 29.5703C153.141 27.8516 152.82 25.8828 152.82 23.6641C152.82 20.7266 153.352 18.2422 154.414 16.2109C155.492 14.1797 157.023 12.6328 159.008 11.5703C161.008 10.5078 163.391 9.97656 166.156 9.97656C168.703 9.97656 170.969 10.5078 172.953 11.5703C174.938 12.6328 176.492 14.1797 177.617 16.2109C178.758 18.2422 179.328 20.7266 179.328 23.6641ZM162.125 23.6641C162.125 25.1797 162.258 26.4609 162.523 27.5078C162.789 28.5391 163.211 29.3281 163.789 29.875C164.383 30.4062 165.156 30.6719 166.109 30.6719C167.062 30.6719 167.82 30.4062 168.383 29.875C168.945 29.3281 169.352 28.5391 169.602 27.5078C169.867 26.4609 170 25.1797 170 23.6641C170 22.1484 169.867 20.8828 169.602 19.8672C169.352 18.8516 168.938 18.0859 168.359 17.5703C167.797 17.0547 167.031 16.7969 166.062 16.7969C164.672 16.7969 163.664 17.375 163.039 18.5312C162.43 19.6875 162.125 21.3984 162.125 23.6641ZM200.609 9.97656C201.109 9.97656 201.633 10.0156 202.18 10.0938C202.727 10.1562 203.133 10.2109 203.398 10.2578L202.578 18.9062C202.281 18.8281 201.898 18.7656 201.43 18.7188C200.961 18.6562 200.305 18.625 199.461 18.625C198.883 18.625 198.266 18.6797 197.609 18.7891C196.953 18.8984 196.328 19.1328 195.734 19.4922C195.156 19.8359 194.68 20.3672 194.305 21.0859C193.93 21.7891 193.742 22.7422 193.742 23.9453V37H184.578V10.4453H191.398L192.828 14.6875H193.273C193.758 13.8125 194.375 13.0234 195.125 12.3203C195.891 11.6016 196.742 11.0312 197.68 10.6094C198.633 10.1875 199.609 9.97656 200.609 9.97656ZM216.336 0.53125V14.875C216.336 15.9531 216.289 17.1562 216.195 18.4844C216.117 19.7969 215.992 20.9922 215.82 22.0703H216.008C216.367 21.5234 216.82 20.8359 217.367 20.0078C217.914 19.1797 218.406 18.4922 218.844 17.9453L224.797 10.4453H235.016L225.805 21.7422L235.602 37H225.125L219.312 27.4844L216.336 29.7578V37H207.125V0.53125H216.336Z" fill="#FFC800"/>
</svg>
